<mxfile host="Electron" agent="Mozilla/5.0 (Windows NT 10.0; Win64; x64) AppleWebKit/537.36 (KHTML, like Gecko) draw.io/25.0.2 Chrome/128.0.6613.186 Electron/32.2.5 Safari/537.36" version="25.0.2">
  <diagram name="Página-1" id="yEm_uzBkTQKGEnw9K8FJ">
    <mxGraphModel dx="1195" dy="697" grid="1" gridSize="10" guides="1" tooltips="1" connect="1" arrows="1" fold="1" page="1" pageScale="1" pageWidth="827" pageHeight="1169" math="0" shadow="0">
      <root>
        <mxCell id="0" />
        <mxCell id="1" parent="0" />
        <mxCell id="RC3i8TY2xjRaoZdbiKLx-2" value="&lt;div style=&quot;text-align: justify;&quot;&gt;3) Calcular o pagamento do vendedor, sabendo que deve receber o salário base e um abono de R$ 300,00 quando seu faturamento for superior a R$ 5.000,00.&lt;/div&gt;&lt;div style=&quot;text-align: left;&quot;&gt;•&amp;nbsp;&lt;span style=&quot;background-color: initial;&quot;&gt;Leia o nome do vendedor&lt;/span&gt;&lt;/div&gt;&lt;div style=&quot;text-align: left;&quot;&gt;•&amp;nbsp;&lt;span style=&quot;background-color: initial;&quot;&gt;Leia o salário base&lt;/span&gt;&lt;/div&gt;&lt;div style=&quot;text-align: left;&quot;&gt;•&amp;nbsp;&lt;span style=&quot;background-color: initial;&quot;&gt;Leia o faturamento do vendedor&lt;/span&gt;&lt;/div&gt;&lt;div style=&quot;text-align: left;&quot;&gt;•&amp;nbsp;&lt;span style=&quot;background-color: initial;&quot;&gt;Calcular salario final&lt;/span&gt;&lt;/div&gt;&lt;div style=&quot;text-align: left;&quot;&gt;•&amp;nbsp;&lt;span style=&quot;background-color: initial;&quot;&gt;Mostrar salario final&lt;/span&gt;&lt;/div&gt;&lt;div style=&quot;text-align: left;&quot;&gt;Teste de mesa: SB = 1200.00 , FAT=5100.00 resultado SF = 1500.00&lt;/div&gt;&lt;div style=&quot;text-align: left;&quot;&gt;Teste de mesa: SB = 1200.00 , FAT=4100.00 resultado SF = 1200.00&lt;/div&gt;" style="text;html=1;align=center;verticalAlign=middle;whiteSpace=wrap;rounded=0;" vertex="1" parent="1">
          <mxGeometry x="5" y="10" width="310" height="180" as="geometry" />
        </mxCell>
        <mxCell id="RC3i8TY2xjRaoZdbiKLx-14" value="" style="edgeStyle=orthogonalEdgeStyle;rounded=0;orthogonalLoop=1;jettySize=auto;html=1;" edge="1" parent="1" source="RC3i8TY2xjRaoZdbiKLx-4" target="RC3i8TY2xjRaoZdbiKLx-5">
          <mxGeometry relative="1" as="geometry" />
        </mxCell>
        <mxCell id="RC3i8TY2xjRaoZdbiKLx-4" value="INÍCIO" style="ellipse;whiteSpace=wrap;html=1;" vertex="1" parent="1">
          <mxGeometry x="374.97" y="20" width="120" height="50" as="geometry" />
        </mxCell>
        <mxCell id="RC3i8TY2xjRaoZdbiKLx-37" value="" style="edgeStyle=orthogonalEdgeStyle;rounded=0;orthogonalLoop=1;jettySize=auto;html=1;" edge="1" parent="1" source="RC3i8TY2xjRaoZdbiKLx-5" target="RC3i8TY2xjRaoZdbiKLx-31">
          <mxGeometry relative="1" as="geometry" />
        </mxCell>
        <mxCell id="RC3i8TY2xjRaoZdbiKLx-5" value="NOME DO VENDEDOR" style="shape=parallelogram;html=1;strokeWidth=2;perimeter=parallelogramPerimeter;whiteSpace=wrap;rounded=1;arcSize=12;size=0.23;" vertex="1" parent="1">
          <mxGeometry x="337.47" y="130" width="195" height="30" as="geometry" />
        </mxCell>
        <mxCell id="RC3i8TY2xjRaoZdbiKLx-43" value="" style="edgeStyle=orthogonalEdgeStyle;rounded=0;orthogonalLoop=1;jettySize=auto;html=1;entryX=1;entryY=0.5;entryDx=0;entryDy=0;entryPerimeter=0;" edge="1" parent="1" source="RC3i8TY2xjRaoZdbiKLx-8" target="RC3i8TY2xjRaoZdbiKLx-13">
          <mxGeometry relative="1" as="geometry">
            <mxPoint x="530" y="685" as="targetPoint" />
          </mxGeometry>
        </mxCell>
        <mxCell id="RC3i8TY2xjRaoZdbiKLx-8" value="SALÁRIO FINAL + ABONO" style="strokeWidth=2;html=1;shape=mxgraph.flowchart.display;whiteSpace=wrap;" vertex="1" parent="1">
          <mxGeometry x="610" y="640" width="190" height="90" as="geometry" />
        </mxCell>
        <mxCell id="RC3i8TY2xjRaoZdbiKLx-40" value="" style="edgeStyle=orthogonalEdgeStyle;rounded=0;orthogonalLoop=1;jettySize=auto;html=1;entryX=0;entryY=0.5;entryDx=0;entryDy=0;" edge="1" parent="1" source="RC3i8TY2xjRaoZdbiKLx-9" target="RC3i8TY2xjRaoZdbiKLx-35">
          <mxGeometry relative="1" as="geometry" />
        </mxCell>
        <mxCell id="RC3i8TY2xjRaoZdbiKLx-46" value="" style="edgeStyle=orthogonalEdgeStyle;rounded=0;orthogonalLoop=1;jettySize=auto;html=1;entryX=1;entryY=0.5;entryDx=0;entryDy=0;" edge="1" parent="1" source="RC3i8TY2xjRaoZdbiKLx-9" target="RC3i8TY2xjRaoZdbiKLx-36">
          <mxGeometry relative="1" as="geometry">
            <mxPoint x="254.97000000000003" y="495" as="targetPoint" />
          </mxGeometry>
        </mxCell>
        <mxCell id="RC3i8TY2xjRaoZdbiKLx-9" value="FATURAMENTO &amp;gt; R$ 5000" style="strokeWidth=2;html=1;shape=mxgraph.flowchart.decision;whiteSpace=wrap;" vertex="1" parent="1">
          <mxGeometry x="334.97" y="440" width="200" height="110" as="geometry" />
        </mxCell>
        <mxCell id="RC3i8TY2xjRaoZdbiKLx-12" value="FIM" style="ellipse;whiteSpace=wrap;html=1;" vertex="1" parent="1">
          <mxGeometry x="360" y="840" width="120" height="50" as="geometry" />
        </mxCell>
        <mxCell id="RC3i8TY2xjRaoZdbiKLx-28" value="" style="edgeStyle=orthogonalEdgeStyle;rounded=0;orthogonalLoop=1;jettySize=auto;html=1;entryX=0.5;entryY=0;entryDx=0;entryDy=0;" edge="1" parent="1" source="RC3i8TY2xjRaoZdbiKLx-13" target="RC3i8TY2xjRaoZdbiKLx-12">
          <mxGeometry relative="1" as="geometry">
            <mxPoint x="420" y="880" as="targetPoint" />
          </mxGeometry>
        </mxCell>
        <mxCell id="RC3i8TY2xjRaoZdbiKLx-13" value="" style="strokeWidth=2;html=1;shape=mxgraph.flowchart.start_2;whiteSpace=wrap;" vertex="1" parent="1">
          <mxGeometry x="397" y="660" width="46" height="50" as="geometry" />
        </mxCell>
        <mxCell id="RC3i8TY2xjRaoZdbiKLx-29" value="SIM" style="text;html=1;align=center;verticalAlign=middle;resizable=0;points=[];autosize=1;strokeColor=none;fillColor=none;" vertex="1" parent="1">
          <mxGeometry x="590" y="450" width="40" height="30" as="geometry" />
        </mxCell>
        <mxCell id="RC3i8TY2xjRaoZdbiKLx-30" value="NÃO" style="text;html=1;align=center;verticalAlign=middle;resizable=0;points=[];autosize=1;strokeColor=none;fillColor=none;" vertex="1" parent="1">
          <mxGeometry x="230" y="450" width="50" height="30" as="geometry" />
        </mxCell>
        <mxCell id="RC3i8TY2xjRaoZdbiKLx-38" value="" style="edgeStyle=orthogonalEdgeStyle;rounded=0;orthogonalLoop=1;jettySize=auto;html=1;" edge="1" parent="1" source="RC3i8TY2xjRaoZdbiKLx-31" target="RC3i8TY2xjRaoZdbiKLx-32">
          <mxGeometry relative="1" as="geometry" />
        </mxCell>
        <mxCell id="RC3i8TY2xjRaoZdbiKLx-31" value="SALÁRIO BASE" style="shape=parallelogram;html=1;strokeWidth=2;perimeter=parallelogramPerimeter;whiteSpace=wrap;rounded=1;arcSize=12;size=0.23;" vertex="1" parent="1">
          <mxGeometry x="337.47" y="230" width="195" height="30" as="geometry" />
        </mxCell>
        <mxCell id="RC3i8TY2xjRaoZdbiKLx-39" value="" style="edgeStyle=orthogonalEdgeStyle;rounded=0;orthogonalLoop=1;jettySize=auto;html=1;" edge="1" parent="1" source="RC3i8TY2xjRaoZdbiKLx-32" target="RC3i8TY2xjRaoZdbiKLx-9">
          <mxGeometry relative="1" as="geometry" />
        </mxCell>
        <mxCell id="RC3i8TY2xjRaoZdbiKLx-32" value="FATURAMENTO" style="shape=parallelogram;html=1;strokeWidth=2;perimeter=parallelogramPerimeter;whiteSpace=wrap;rounded=1;arcSize=12;size=0.23;" vertex="1" parent="1">
          <mxGeometry x="337.47" y="320" width="195" height="30" as="geometry" />
        </mxCell>
        <mxCell id="RC3i8TY2xjRaoZdbiKLx-50" value="" style="edgeStyle=orthogonalEdgeStyle;rounded=0;orthogonalLoop=1;jettySize=auto;html=1;entryX=0;entryY=0.5;entryDx=0;entryDy=0;entryPerimeter=0;" edge="1" parent="1" source="RC3i8TY2xjRaoZdbiKLx-33" target="RC3i8TY2xjRaoZdbiKLx-13">
          <mxGeometry relative="1" as="geometry">
            <mxPoint x="345" y="675" as="targetPoint" />
          </mxGeometry>
        </mxCell>
        <mxCell id="RC3i8TY2xjRaoZdbiKLx-33" value="SALÁRIO FINAL" style="strokeWidth=2;html=1;shape=mxgraph.flowchart.display;whiteSpace=wrap;" vertex="1" parent="1">
          <mxGeometry x="30" y="640" width="190" height="90" as="geometry" />
        </mxCell>
        <mxCell id="RC3i8TY2xjRaoZdbiKLx-41" value="" style="edgeStyle=orthogonalEdgeStyle;rounded=0;orthogonalLoop=1;jettySize=auto;html=1;" edge="1" parent="1" source="RC3i8TY2xjRaoZdbiKLx-35" target="RC3i8TY2xjRaoZdbiKLx-8">
          <mxGeometry relative="1" as="geometry" />
        </mxCell>
        <mxCell id="RC3i8TY2xjRaoZdbiKLx-35" value="SF = SF + R$300" style="rounded=1;whiteSpace=wrap;html=1;" vertex="1" parent="1">
          <mxGeometry x="680" y="470" width="130" height="50" as="geometry" />
        </mxCell>
        <mxCell id="RC3i8TY2xjRaoZdbiKLx-48" value="" style="edgeStyle=orthogonalEdgeStyle;rounded=0;orthogonalLoop=1;jettySize=auto;html=1;" edge="1" parent="1" source="RC3i8TY2xjRaoZdbiKLx-36" target="RC3i8TY2xjRaoZdbiKLx-33">
          <mxGeometry relative="1" as="geometry" />
        </mxCell>
        <mxCell id="RC3i8TY2xjRaoZdbiKLx-36" value="SALÁRIO FINAL" style="rounded=1;whiteSpace=wrap;html=1;" vertex="1" parent="1">
          <mxGeometry x="60" y="470" width="125" height="50" as="geometry" />
        </mxCell>
      </root>
    </mxGraphModel>
  </diagram>
</mxfile>
